<?xml version="1.0" standalone="no"?><!DOCTYPE svg PUBLIC "-//W3C//DTD SVG 1.1//EN" "http://www.w3.org/Graphics/SVG/1.1/DTD/svg11.dtd"><svg t="1748079214875" class="icon" viewBox="0 0 1024 1024" version="1.1" xmlns="http://www.w3.org/2000/svg" p-id="18660" xmlns:xlink="http://www.w3.org/1999/xlink" width="200" height="200"><path d="M601.216 85.333333a42.666667 42.666667 0 0 1 30.485333 12.821334l209.450667 213.973333a42.666667 42.666667 0 0 1 12.181333 29.866667V853.333333a85.333333 85.333333 0 0 1-85.333333 85.333334H256a85.333333 85.333333 0 0 1-85.333333-85.333334V170.666667a85.333333 85.333333 0 0 1 85.333333-85.333334h345.216zM565.333333 682.666667h-234.666666a32 32 0 0 0 0 64h234.666666a32 32 0 0 0 0-64z m128-149.333334h-362.666666a32 32 0 0 0 0 64h362.666666a32 32 0 0 0 0-64zM629.610667 187.541333v143.872h140.8l-140.8-143.872z" fill="#323847" p-id="18661"></path></svg>